<svg xmlns="http://www.w3.org/2000/svg" width="30.83" height="30.829" viewBox="0 0 30.83 30.829">
  <path id="iconmonstr-fingerprint-5" d="M12.166,25.361A29.526,29.526,0,0,1,5.54,28.475a1.166,1.166,0,0,1-.933-.087,1.065,1.065,0,0,1-.549-1.035A1.082,1.082,0,0,1,4.8,26.44c5.945-1.965,11.023-5.646,13.343-11.025,1.24-2.877-1.127-4.935-3.571-4.935a3.966,3.966,0,0,0-3.738,2.513c-1.371,3.179-4.822,5.7-9.447,6.985a1.085,1.085,0,0,1-1.389-1,1.1,1.1,0,0,1,.82-1.082c3.955-1.1,6.863-3.166,7.971-5.736A6.377,6.377,0,0,1,19.8,10.948a5.357,5.357,0,0,1,.391,5.3,18.98,18.98,0,0,1-3.33,5.165,22.959,22.959,0,0,1-4.692,3.945ZM1.77,24.6c5.944-1.4,11.62-4.667,13.981-10.139a1.07,1.07,0,0,0-.593-1.414,1.119,1.119,0,0,0-1.452.578c-1.811,4.2-6.391,7.44-12.423,8.867A1.082,1.082,0,1,0,1.77,24.6Zm26.658,1.568a1.027,1.027,0,0,0,.356-.966,1.046,1.046,0,0,0-.665-.8,5.969,5.969,0,0,1-2.944-2.021c-.781-1.22-.488-2.844-.148-4.726.477-2.642,1.073-5.931-1.3-9.249a10.634,10.634,0,0,0-7.6-4.266A11.544,11.544,0,0,0,7.178,7.028,11.553,11.553,0,0,0,4.976,9.9a6.237,6.237,0,0,1-3.96,3.373,1.071,1.071,0,0,0-.746.907,1.083,1.083,0,0,0,1.423,1.146,8.235,8.235,0,0,0,5.2-4.339,9.579,9.579,0,0,1,1.8-2.378,9.29,9.29,0,0,1,7.2-2.32,8.411,8.411,0,0,1,6.019,3.351c1.848,2.588,1.385,5.157.936,7.642-.384,2.125-.78,4.321.451,6.243a7.832,7.832,0,0,0,3.885,2.836,1.241,1.241,0,0,0,1.25-.2Zm-15.07,1.559c-.509.289-1.139.647-1.96,1.053a1.078,1.078,0,0,0-.6,1.138,1.111,1.111,0,0,0,1.579.8c.541-.267,1-.515,1.407-.739,1.6-.885,1.748-.9,3.261.186l.6.417a1.149,1.149,0,0,0,.823.176,1.094,1.094,0,0,0,.9-.835,1.07,1.07,0,0,0-.459-1.12c-.645-.432-1.119-.8-1.477-1.08-1.485-1.154-1.982-1.187-4.073,0ZM1.978,8.413a.985.985,0,0,0,1.385-.267l.664-.962C6.68,3.454,11.368,1.626,16.568,2.292c4.943.633,9,3.387,10.339,7.018a13.893,13.893,0,0,1,.34,7.905c-.324,1.8-.605,3.362.378,4.612a3.882,3.882,0,0,0,1.748,1.195,1.067,1.067,0,0,0,1.455-.978,1.151,1.151,0,0,0-.731-1.061,1.693,1.693,0,0,1-.712-.469c-.392-.5-.2-1.568.046-2.924A15.926,15.926,0,0,0,29,8.58C27.379,4.2,22.615.888,16.857.15A18.669,18.669,0,0,0,14.513,0,15.066,15.066,0,0,0,3.291,4.618,8,8,0,0,0,1.673,6.987a1.02,1.02,0,0,0,.306,1.426ZM20.191,23.5a1.126,1.126,0,0,0-1.512-.4,1.064,1.064,0,0,0-.416,1.472A12.091,12.091,0,0,0,23,28.956a1.143,1.143,0,0,0,1.046.031h0a1.06,1.06,0,0,0,.058-1.9,9.967,9.967,0,0,1-3.915-3.59Z" transform="translate(0)" fill="#01eb85"/>
</svg>
