<svg xmlns="http://www.w3.org/2000/svg" xmlns:xlink="http://www.w3.org/1999/xlink" width="189.062" height="251.687" viewBox="0 0 189.062 251.687">
  <defs>
    <linearGradient id="linear-gradient" x1="0.5" x2="0.5" y2="1" gradientUnits="objectBoundingBox">
      <stop offset="0" stop-color="#fff" stop-opacity="0.102"/>
      <stop offset="0.522" stop-color="#fff" stop-opacity="0.2"/>
      <stop offset="1" stop-color="#fff" stop-opacity="0.102"/>
    </linearGradient>
  </defs>
  <g id="Group_126" data-name="Group 126" transform="translate(-292.63 -379.174)">
    <g id="Union_34" data-name="Union 34" transform="translate(316.482 379.174)" fill="url(#linear-gradient)">
      <path d="M 26.12986183166504 245.8519592285156 L 48.0075798034668 145.5256042480469 L 48.40434646606445 143.7060089111328 L 46.54201126098633 143.7060089111328 L 3.151280879974365 143.7060089111328 L 115.1603164672852 5.834550380706787 L 93.28474426269531 106.1609802246094 L 92.88801574707031 107.9805450439453 L 94.75031280517578 107.9805450439453 L 138.1410980224609 107.9805450439453 L 26.12986183166504 245.8519592285156 Z" stroke="none"/>
      <path d="M 28.93745613098145 240.0172882080078 L 134.9897613525391 109.4805450439453 L 91.02568054199219 109.4805450439453 L 112.3529052734375 11.66902256011963 L 6.302515983581543 142.2060089111328 L 50.2667121887207 142.2060089111328 L 28.93745613098145 240.0172882080078 M 23.32227897644043 251.6865386962891 L 46.54201126098633 145.2060089111328 L 1.25325523185893e-05 145.2060089111328 L 117.9677429199219 1.031087231240235e-05 L 94.75031280517578 106.4805450439453 L 141.2923736572266 106.4805450439453 L 23.32227897644043 251.6865386962891 Z" stroke="none" fill="#fff"/>
    </g>
    <path id="Path_129" data-name="Path 129" d="M0,13.951,13.951,0l3.873,20.118" transform="translate(465.883 466.658) rotate(45)" fill="none" stroke="#fff" stroke-width="3" opacity="0.5"/>
    <path id="Path_130" data-name="Path 130" d="M0,13.951,13.951,0l3.873,20.118" transform="translate(308.438 544.042) rotate(-135)" fill="none" stroke="#fff" stroke-width="3" opacity="0.5"/>
  </g>
</svg>
