<svg xmlns="http://www.w3.org/2000/svg" width="45.248" height="42" viewBox="0 0 45.248 42">
  <g id="Group_352" data-name="Group 352" transform="translate(-738.76 -1704.847)">
    <rect id="Rectangle_1342" data-name="Rectangle 1342" width="14" height="14" rx="3" transform="translate(740.694 1732.847)" fill="#fff"/>
    <rect id="Rectangle_1346" data-name="Rectangle 1346" width="14" height="14" rx="3" transform="translate(768.694 1704.847)" fill="#fff"/>
    <path id="Path_268" data-name="Path 268" d="M0,0,6.734,6.734,13.468,0" transform="matrix(0.995, 0.105, -0.105, 0.995, 741.796, 1718.195)" fill="none" stroke="#fff" stroke-linecap="round" stroke-width="3"/>
    <path id="Path_270" data-name="Path 270" d="M0,0,6.734,6.734,13.468,0" transform="matrix(-0.995, -0.105, 0.105, -0.995, 780.973, 1733.717)" fill="none" stroke="#fff" stroke-linecap="round" stroke-width="3"/>
    <path id="Path_269" data-name="Path 269" d="M0,0C6.4,0,12.791,3.589,12.791,12.791" transform="translate(747.734 1723.897) rotate(-90)" fill="none" stroke="#fff" stroke-linecap="round" stroke-width="3"/>
    <path id="Path_271" data-name="Path 271" d="M0,0C6.4,0,12.791,3.589,12.791,12.791" transform="translate(775.035 1728.015) rotate(90)" fill="none" stroke="#fff" stroke-linecap="round" stroke-width="3"/>
  </g>
</svg>
