<svg xmlns="http://www.w3.org/2000/svg" xmlns:xlink="http://www.w3.org/1999/xlink" width="41.953" height="42.447" viewBox="0 0 41.953 42.447">
  <defs>
    <filter id="Path_317" x="-0.379" y="-9.5" width="51.832" height="51.512" filterUnits="userSpaceOnUse">
      <feOffset input="SourceAlpha"/>
      <feGaussianBlur stdDeviation="3" result="blur"/>
      <feFlood flood-color="#00eb85"/>
      <feComposite operator="in" in2="blur"/>
      <feComposite in="SourceGraphic"/>
    </filter>
    <clipPath id="clip-path">
      <g transform="matrix(1, 0, 0, 1, 0, 0)" filter="url(#Path_317)">
        <path id="Path_317-2" data-name="Path 317" d="M-6199.9,1100.883v13.064h19.523v19.448h13.309v-32.512Z" transform="translate(6199.9 -1100.88)" fill="none" stroke="#707070" stroke-width="1"/>
      </g>
    </clipPath>
    <filter id="Rectangle_1431" x="6.497" y="-3.511" width="38.771" height="38.771" filterUnits="userSpaceOnUse">
      <feOffset input="SourceAlpha"/>
      <feGaussianBlur stdDeviation="3" result="blur-2"/>
      <feFlood flood-color="#00eb85"/>
      <feComposite operator="in" in2="blur-2"/>
      <feComposite in="SourceGraphic"/>
    </filter>
    <filter id="Rectangle_671" x="0" y="3.676" width="38.771" height="38.771" filterUnits="userSpaceOnUse">
      <feOffset dy="1" input="SourceAlpha"/>
      <feGaussianBlur stdDeviation="3" result="blur-3"/>
      <feFlood flood-color="#00eb85"/>
      <feComposite operator="in" in2="blur-3"/>
      <feComposite in="SourceGraphic"/>
    </filter>
  </defs>
  <g id="Group_380" data-name="Group 380" transform="translate(-1831.997 -71.883)">
    <g id="Mask_Group_94" data-name="Mask Group 94" transform="translate(1841.118 71.883)" clip-path="url(#clip-path)">
      <g transform="matrix(1, 0, 0, 1, -9.12, 0)" filter="url(#Rectangle_1431)">
        <g id="Rectangle_1431-2" data-name="Rectangle 1431" transform="translate(15.5 5.49)" fill="none" stroke="#fff" stroke-linecap="round" stroke-width="2">
          <rect width="20.771" height="20.771" rx="2" stroke="none"/>
          <rect x="1" y="1" width="18.771" height="18.771" rx="1" fill="none"/>
        </g>
      </g>
    </g>
    <g transform="matrix(1, 0, 0, 1, 1832, 71.88)" filter="url(#Rectangle_671)">
      <g id="Rectangle_671-2" data-name="Rectangle 671" transform="translate(9 11.68)" fill="none" stroke="#fff" stroke-linecap="round" stroke-width="2">
        <rect width="20.771" height="20.771" rx="2" stroke="none"/>
        <rect x="1" y="1" width="18.771" height="18.771" rx="1" fill="none"/>
      </g>
    </g>
  </g>
</svg>
