<svg xmlns="http://www.w3.org/2000/svg" xmlns:xlink="http://www.w3.org/1999/xlink" viewBox="0 0 900 768"><defs><style>.cls-1{fill:url(#linear-gradient);}.cls-2{fill:url(#linear-gradient-2);}.cls-3{fill:url(#linear-gradient-3);}.cls-4{fill:url(#linear-gradient-4);}.cls-5{opacity:0.28;fill:url(#linear-gradient-5);}.cls-6{opacity:0.6;fill:url(#radial-gradient);}.cls-7{fill:url(#linear-gradient-6);}.cls-8{fill:url(#linear-gradient-7);}.cls-9{fill:url(#linear-gradient-8);}</style><linearGradient id="linear-gradient" x1="408.74928" y1="122" x2="614" y2="122" gradientUnits="userSpaceOnUse"><stop offset="0" stop-color="gray"/><stop offset="1" stop-color="#666"/></linearGradient><linearGradient id="linear-gradient-2" x1="133.91501" y1="114.14996" x2="133.91501" y2="706.95001" gradientUnits="userSpaceOnUse"><stop offset="0" stop-color="#b3b3b3"/><stop offset="1" stop-color="#b3b3b3" stop-opacity="0"/></linearGradient><linearGradient id="linear-gradient-3" x1="449.97501" y1="109.20756" x2="449.97501" y2="706.95001" gradientUnits="userSpaceOnUse"><stop offset="0" stop-color="gray"/><stop offset="1" stop-color="gray" stop-opacity="0"/></linearGradient><linearGradient id="linear-gradient-4" x1="450.67857" y1="170.49545" x2="450.67857" y2="704.20726" gradientUnits="userSpaceOnUse"><stop offset="0" stop-color="#b3b3b3"/><stop offset="1" stop-color="#999" stop-opacity="0"/></linearGradient><linearGradient id="linear-gradient-5" x1="523.70869" y1="162.71092" x2="514.72172" y2="222.88455" gradientUnits="userSpaceOnUse"><stop offset="0"/><stop offset="0.99964" stop-opacity="0"/></linearGradient><radialGradient id="radial-gradient" cx="1365.20576" cy="2587.24854" r="400.98166" gradientTransform="matrix(-0.81646, -0.5774, -0.5774, 0.81646, 3315.21896, -1258.95129)" gradientUnits="userSpaceOnUse"><stop offset="0" stop-color="#00eb85" stop-opacity="0"/><stop offset="0.55344" stop-color="#00eb85"/><stop offset="1" stop-color="#00eb85" stop-opacity="0"/></radialGradient><linearGradient id="linear-gradient-6" x1="680.0244" y1="79.19354" x2="666.62908" y2="144.49573" gradientUnits="userSpaceOnUse"><stop offset="0" stop-color="#b3b3b3"/><stop offset="0.19297" stop-color="#999"/><stop offset="1" stop-color="gray"/></linearGradient><linearGradient id="linear-gradient-7" x1="334" y1="104.71253" x2="638" y2="104.71253" gradientUnits="userSpaceOnUse"><stop offset="0" stop-color="#ccc"/><stop offset="1" stop-color="#666"/></linearGradient><linearGradient id="linear-gradient-8" x1="631.75576" y1="126.03586" x2="728.03464" y2="180.45436" xlink:href="#linear-gradient"/></defs><g id="Layer_1" data-name="Layer 1"><polygon class="cls-1" points="614 112 464 155 408.749 145.496 602 89 614 112"/><path class="cls-2" d="M164.83,114.63a35.7389,35.7389,0,0,0-16.88,30.41V706.95H103V177.24a37.68594,37.68594,0,0,1,15.98-30.81l45.83-32.28Z"/><path class="cls-3" d="M752,231.7V706.95H147.95V145.04a35.81883,35.81883,0,0,1,41.58-35.36l532.4,86.67A35.81352,35.81352,0,0,1,752,231.7Z"/><polygon class="cls-4" points="711.262 241.979 190.095 157.693 190.095 706.955 711.262 706.955 711.262 241.979"/><polygon class="cls-5" points="586 235 369 139 678 189.216 586 235"/><path class="cls-6" d="M319.0119,182.22879c57.12206,213.6794,276.65,340.59421,490.32942,283.47215L724,154,590.73522,108.99922Z"/><path class="cls-7" d="M629.06888,139,761,161,729.407,99.52791a27.956,27.956,0,0,0-19.34822-14.6494L586,61"/><path class="cls-8" d="M638,137,603.06634,72.69031a23.46142,23.46142,0,0,0-27.27828-11.29677L334,133l73.8877,12.49561L569.89082,98.58689a10.26294,10.26294,0,0,1,11.99284,5.18709L605,149Z"/><polygon class="cls-9" points="605 149 731 174 761 161 638 137 605 149"/></g></svg>