<svg xmlns="http://www.w3.org/2000/svg" xmlns:xlink="http://www.w3.org/1999/xlink" width="48.746" height="48.779" viewBox="0 0 48.746 48.779">
  <defs>
    <filter id="Path_11" x="0" y="0" width="48.746" height="48.779" filterUnits="userSpaceOnUse">
      <feOffset dy="2" input="SourceAlpha"/>
      <feGaussianBlur stdDeviation="3" result="blur"/>
      <feFlood flood-opacity="0.502"/>
      <feComposite operator="in" in2="blur"/>
      <feComposite in="SourceGraphic"/>
    </filter>
    <filter id="Ellipse_8" x="9.927" y="9.883" width="28.941" height="28.941" filterUnits="userSpaceOnUse">
      <feOffset dy="2" input="SourceAlpha"/>
      <feGaussianBlur stdDeviation="3" result="blur-2"/>
      <feFlood flood-opacity="0.502"/>
      <feComposite operator="in" in2="blur-2"/>
      <feComposite in="SourceGraphic"/>
    </filter>
  </defs>
  <g id="Group_62" data-name="Group 62" transform="translate(-40 -31.364)">
    <g transform="matrix(1, 0, 0, 1, 40, 31.36)" filter="url(#Path_11)">
      <path id="Path_11-2" data-name="Path 11" d="M1448.078,350.984V348.5a.777.777,0,0,0-.619-.761l-3.014-.626a.777.777,0,0,1-.585-.532,10.545,10.545,0,0,0-.74-1.791.78.78,0,0,1,.037-.789l1.677-2.555a.778.778,0,0,0-.1-.976l-1.754-1.755a.778.778,0,0,0-.976-.1l-2.552,1.674a.778.778,0,0,1-.79.037,10.535,10.535,0,0,0-1.785-.74.778.778,0,0,1-.531-.584l-.628-3.025a.777.777,0,0,0-.761-.619h-2.481a.778.778,0,0,0-.761.619l-.629,3.033a.778.778,0,0,1-.53.584,10.528,10.528,0,0,0-1.765.735.779.779,0,0,1-.79-.037l-2.58-1.693a.777.777,0,0,0-.976.1l-1.754,1.755a.778.778,0,0,0-.1.976l1.7,2.59a.777.777,0,0,1,.038.787,10.535,10.535,0,0,0-.731,1.776.777.777,0,0,1-.584.533l-3.062.635a.777.777,0,0,0-.619.761V351a.777.777,0,0,0,.619.761l3.091.641a.778.778,0,0,1,.583.527,10.553,10.553,0,0,0,.712,1.706.778.778,0,0,1-.037.789l-1.725,2.628a.778.778,0,0,0,.1.976l1.755,1.755a.777.777,0,0,0,.976.1l2.633-1.728a.778.778,0,0,1,.788-.038,10.554,10.554,0,0,0,1.689.7.779.779,0,0,1,.527.583l.647,3.118a.777.777,0,0,0,.761.619h2.481a.777.777,0,0,0,.761-.619l.642-3.093a.779.779,0,0,1,.532-.585,10.525,10.525,0,0,0,1.717-.7.778.778,0,0,1,.784.04l2.617,1.718a.778.778,0,0,0,.977-.1l1.754-1.755a.777.777,0,0,0,.1-.976l-1.693-2.581a.777.777,0,0,1-.035-.793,10.543,10.543,0,0,0,.751-1.791.777.777,0,0,1,.583-.528l3.033-.629A.777.777,0,0,0,1448.078,350.984Z" transform="translate(-1409.33 -327.36)" fill="none" stroke="#fff" stroke-width="2"/>
    </g>
    <g transform="matrix(1, 0, 0, 1, 40, 31.36)" filter="url(#Ellipse_8)">
      <ellipse id="Ellipse_8-2" data-name="Ellipse 8" cx="4.47" cy="4.47" rx="4.47" ry="4.47" transform="translate(19.93 17.88)" fill="none" stroke="#fff" stroke-width="2"/>
    </g>
  </g>
</svg>
