<svg xmlns="http://www.w3.org/2000/svg" xmlns:xlink="http://www.w3.org/1999/xlink" width="32.307" height="36.738" viewBox="0 0 32.307 36.738">
  <defs>
    <filter id="Line_119" x="0.713" y="12.087" width="8.896" height="11.595" filterUnits="userSpaceOnUse">
      <feOffset dy="1" input="SourceAlpha"/>
      <feGaussianBlur stdDeviation="1" result="blur"/>
      <feFlood flood-opacity="0.506"/>
      <feComposite operator="in" in2="blur"/>
      <feComposite in="SourceGraphic"/>
    </filter>
    <filter id="Line_120" x="4.413" y="14.273" width="8.904" height="12.47" filterUnits="userSpaceOnUse">
      <feOffset dy="1" input="SourceAlpha"/>
      <feGaussianBlur stdDeviation="1" result="blur-2"/>
      <feFlood flood-opacity="0.506"/>
      <feComposite operator="in" in2="blur-2"/>
      <feComposite in="SourceGraphic"/>
    </filter>
    <filter id="Line_121" x="4.414" y="8.401" width="8.901" height="12.176" filterUnits="userSpaceOnUse">
      <feOffset dy="1" input="SourceAlpha"/>
      <feGaussianBlur stdDeviation="1" result="blur-3"/>
      <feFlood flood-opacity="0.506"/>
      <feComposite operator="in" in2="blur-3"/>
      <feComposite in="SourceGraphic"/>
    </filter>
    <filter id="Line_122" x="8.418" y="12.171" width="8.609" height="12.971" filterUnits="userSpaceOnUse">
      <feOffset dy="1" input="SourceAlpha"/>
      <feGaussianBlur stdDeviation="1" result="blur-4"/>
      <feFlood flood-opacity="0.506"/>
      <feComposite operator="in" in2="blur-4"/>
      <feComposite in="SourceGraphic"/>
    </filter>
    <filter id="Line_123" x="8.443" y="5.846" width="9.484" height="12.658" filterUnits="userSpaceOnUse">
      <feOffset dy="1" input="SourceAlpha"/>
      <feGaussianBlur stdDeviation="1" result="blur-5"/>
      <feFlood flood-opacity="0.506"/>
      <feComposite operator="in" in2="blur-5"/>
      <feComposite in="SourceGraphic"/>
    </filter>
    <filter id="Line_124" x="13.158" y="2.219" width="9.889" height="14.28" filterUnits="userSpaceOnUse">
      <feOffset dy="1" input="SourceAlpha"/>
      <feGaussianBlur stdDeviation="1" result="blur-6"/>
      <feFlood flood-opacity="0.506"/>
      <feComposite operator="in" in2="blur-6"/>
      <feComposite in="SourceGraphic"/>
    </filter>
    <filter id="Line_125" x="13.13" y="10.191" width="8.529" height="14.308" filterUnits="userSpaceOnUse">
      <feOffset dy="1" input="SourceAlpha"/>
      <feGaussianBlur stdDeviation="1" result="blur-7"/>
      <feFlood flood-opacity="0.506"/>
      <feComposite operator="in" in2="blur-7"/>
      <feComposite in="SourceGraphic"/>
    </filter>
    <filter id="Line_126" x="9.899" y="17.443" width="10.894" height="8.6" filterUnits="userSpaceOnUse">
      <feOffset dy="1" input="SourceAlpha"/>
      <feGaussianBlur stdDeviation="1" result="blur-8"/>
      <feFlood flood-opacity="0.506"/>
      <feComposite operator="in" in2="blur-8"/>
      <feComposite in="SourceGraphic"/>
    </filter>
    <filter id="Line_127" x="5.943" y="18.128" width="10.473" height="9.389" filterUnits="userSpaceOnUse">
      <feOffset dy="1" input="SourceAlpha"/>
      <feGaussianBlur stdDeviation="1" result="blur-9"/>
      <feFlood flood-opacity="0.506"/>
      <feComposite operator="in" in2="blur-9"/>
      <feComposite in="SourceGraphic"/>
    </filter>
    <filter id="Line_128" x="2.667" y="19.775" width="10.233" height="9.799" filterUnits="userSpaceOnUse">
      <feOffset dy="1" input="SourceAlpha"/>
      <feGaussianBlur stdDeviation="1" result="blur-10"/>
      <feFlood flood-opacity="0.506"/>
      <feComposite operator="in" in2="blur-10"/>
      <feComposite in="SourceGraphic"/>
    </filter>
    <filter id="Line_129" x="0.738" y="17.226" width="9.462" height="11.811" filterUnits="userSpaceOnUse">
      <feOffset dy="1" input="SourceAlpha"/>
      <feGaussianBlur stdDeviation="1" result="blur-11"/>
      <feFlood flood-opacity="0.506"/>
      <feComposite operator="in" in2="blur-11"/>
      <feComposite in="SourceGraphic"/>
    </filter>
    <filter id="Line_130" x="13.668" y="18.31" width="9.4" height="17.557" filterUnits="userSpaceOnUse">
      <feOffset dy="1" input="SourceAlpha"/>
      <feGaussianBlur stdDeviation="1" result="blur-12"/>
      <feFlood flood-opacity="0.506"/>
      <feComposite operator="in" in2="blur-12"/>
      <feComposite in="SourceGraphic"/>
    </filter>
    <filter id="Line_131" x="2.351" y="22.298" width="10.871" height="12.928" filterUnits="userSpaceOnUse">
      <feOffset dy="1" input="SourceAlpha"/>
      <feGaussianBlur stdDeviation="1" result="blur-13"/>
      <feFlood flood-opacity="0.506"/>
      <feComposite operator="in" in2="blur-13"/>
      <feComposite in="SourceGraphic"/>
    </filter>
    <filter id="Line_132" x="6.234" y="27.773" width="15.942" height="8.964" filterUnits="userSpaceOnUse">
      <feOffset dy="1" input="SourceAlpha"/>
      <feGaussianBlur stdDeviation="1" result="blur-14"/>
      <feFlood flood-opacity="0.506"/>
      <feComposite operator="in" in2="blur-14"/>
      <feComposite in="SourceGraphic"/>
    </filter>
    <filter id="Line_133" x="15.339" y="24.549" width="11.615" height="11.87" filterUnits="userSpaceOnUse">
      <feOffset dy="1" input="SourceAlpha"/>
      <feGaussianBlur stdDeviation="1" result="blur-15"/>
      <feFlood flood-opacity="0.506"/>
      <feComposite operator="in" in2="blur-15"/>
      <feComposite in="SourceGraphic"/>
    </filter>
    <filter id="Line_134" x="19.311" y="14.923" width="12.441" height="16.726" filterUnits="userSpaceOnUse">
      <feOffset dy="1" input="SourceAlpha"/>
      <feGaussianBlur stdDeviation="1" result="blur-16"/>
      <feFlood flood-opacity="0.506"/>
      <feComposite operator="in" in2="blur-16"/>
      <feComposite in="SourceGraphic"/>
    </filter>
    <filter id="Ellipse_87" x="1.949" y="19.974" width="8.923" height="8.923" filterUnits="userSpaceOnUse">
      <feOffset input="SourceAlpha"/>
      <feGaussianBlur stdDeviation="1" result="blur-17"/>
      <feFlood flood-opacity="0.506"/>
      <feComposite operator="in" in2="blur-17"/>
      <feComposite in="SourceGraphic"/>
    </filter>
    <filter id="Ellipse_90" x="5.066" y="18.025" width="8.923" height="8.923" filterUnits="userSpaceOnUse">
      <feOffset input="SourceAlpha"/>
      <feGaussianBlur stdDeviation="1" result="blur-18"/>
      <feFlood flood-opacity="0.506"/>
      <feComposite operator="in" in2="blur-18"/>
      <feComposite in="SourceGraphic"/>
    </filter>
    <filter id="Ellipse_97" x="3.897" y="11.692" width="8.923" height="8.923" filterUnits="userSpaceOnUse">
      <feOffset input="SourceAlpha"/>
      <feGaussianBlur stdDeviation="1" result="blur-19"/>
      <feFlood flood-opacity="0.506"/>
      <feComposite operator="in" in2="blur-19"/>
      <feComposite in="SourceGraphic"/>
    </filter>
    <filter id="Ellipse_98" x="4.872" y="5.846" width="8.923" height="8.923" filterUnits="userSpaceOnUse">
      <feOffset input="SourceAlpha"/>
      <feGaussianBlur stdDeviation="1" result="blur-20"/>
      <feFlood flood-opacity="0.506"/>
      <feComposite operator="in" in2="blur-20"/>
      <feComposite in="SourceGraphic"/>
    </filter>
    <filter id="Ellipse_91" x="8.769" y="16.564" width="8.923" height="8.923" filterUnits="userSpaceOnUse">
      <feOffset input="SourceAlpha"/>
      <feGaussianBlur stdDeviation="1" result="blur-21"/>
      <feFlood flood-opacity="0.506"/>
      <feComposite operator="in" in2="blur-21"/>
      <feComposite in="SourceGraphic"/>
    </filter>
    <filter id="Ellipse_102" x="4.872" y="26.307" width="8.923" height="8.923" filterUnits="userSpaceOnUse">
      <feOffset input="SourceAlpha"/>
      <feGaussianBlur stdDeviation="1" result="blur-22"/>
      <feFlood flood-opacity="0.506"/>
      <feComposite operator="in" in2="blur-22"/>
      <feComposite in="SourceGraphic"/>
    </filter>
    <filter id="Ellipse_95" x="7.795" y="9.743" width="8.923" height="8.923" filterUnits="userSpaceOnUse">
      <feOffset input="SourceAlpha"/>
      <feGaussianBlur stdDeviation="1" result="blur-23"/>
      <feFlood flood-opacity="0.506"/>
      <feComposite operator="in" in2="blur-23"/>
      <feComposite in="SourceGraphic"/>
    </filter>
    <filter id="Ellipse_96" x="9.743" y="3.897" width="8.923" height="8.923" filterUnits="userSpaceOnUse">
      <feOffset input="SourceAlpha"/>
      <feGaussianBlur stdDeviation="1" result="blur-24"/>
      <feFlood flood-opacity="0.506"/>
      <feComposite operator="in" in2="blur-24"/>
      <feComposite in="SourceGraphic"/>
    </filter>
    <filter id="Ellipse_92" x="13.154" y="16.077" width="8.923" height="8.923" filterUnits="userSpaceOnUse">
      <feOffset input="SourceAlpha"/>
      <feGaussianBlur stdDeviation="1" result="blur-25"/>
      <feFlood flood-opacity="0.506"/>
      <feComposite operator="in" in2="blur-25"/>
      <feComposite in="SourceGraphic"/>
    </filter>
    <filter id="Ellipse_101" x="14.615" y="27.281" width="8.923" height="8.923" filterUnits="userSpaceOnUse">
      <feOffset input="SourceAlpha"/>
      <feGaussianBlur stdDeviation="1" result="blur-26"/>
      <feFlood flood-opacity="0.506"/>
      <feComposite operator="in" in2="blur-26"/>
      <feComposite in="SourceGraphic"/>
    </filter>
    <filter id="Ellipse_100" x="18.999" y="23.41" width="8.923" height="8.923" filterUnits="userSpaceOnUse">
      <feOffset dy="1" input="SourceAlpha"/>
      <feGaussianBlur stdDeviation="1" result="blur-27"/>
      <feFlood flood-opacity="0.506"/>
      <feComposite operator="in" in2="blur-27"/>
      <feComposite in="SourceGraphic"/>
    </filter>
    <filter id="Ellipse_99" x="23.384" y="13.666" width="8.923" height="8.923" filterUnits="userSpaceOnUse">
      <feOffset dy="1" input="SourceAlpha"/>
      <feGaussianBlur stdDeviation="1" result="blur-28"/>
      <feFlood flood-opacity="0.506"/>
      <feComposite operator="in" in2="blur-28"/>
      <feComposite in="SourceGraphic"/>
    </filter>
    <filter id="Ellipse_94" x="14.615" y="0" width="8.923" height="8.923" filterUnits="userSpaceOnUse">
      <feOffset input="SourceAlpha"/>
      <feGaussianBlur stdDeviation="1" result="blur-29"/>
      <feFlood flood-opacity="0.506"/>
      <feComposite operator="in" in2="blur-29"/>
      <feComposite in="SourceGraphic"/>
    </filter>
    <filter id="Ellipse_93" x="12.666" y="7.795" width="8.923" height="8.923" filterUnits="userSpaceOnUse">
      <feOffset input="SourceAlpha"/>
      <feGaussianBlur stdDeviation="1" result="blur-30"/>
      <feFlood flood-opacity="0.506"/>
      <feComposite operator="in" in2="blur-30"/>
      <feComposite in="SourceGraphic"/>
    </filter>
    <filter id="Ellipse_88" x="0" y="14.615" width="8.923" height="8.923" filterUnits="userSpaceOnUse">
      <feOffset input="SourceAlpha"/>
      <feGaussianBlur stdDeviation="1" result="blur-31"/>
      <feFlood flood-opacity="0.506"/>
      <feComposite operator="in" in2="blur-31"/>
      <feComposite in="SourceGraphic"/>
    </filter>
    <filter id="Ellipse_89" x="0.974" y="9.743" width="8.923" height="8.923" filterUnits="userSpaceOnUse">
      <feOffset input="SourceAlpha"/>
      <feGaussianBlur stdDeviation="1" result="blur-32"/>
      <feFlood flood-opacity="0.506"/>
      <feComposite operator="in" in2="blur-32"/>
      <feComposite in="SourceGraphic"/>
    </filter>
  </defs>
  <g id="Group_342" data-name="Group 342" transform="translate(3 3)">
    <g transform="matrix(1, 0, 0, 1, -3, -3)" filter="url(#Line_119)">
      <line id="Line_119-2" data-name="Line 119" x1="0.926" y2="5.247" transform="translate(4.7 14.26)" fill="none" stroke="#ededed" stroke-width="2"/>
    </g>
    <g transform="matrix(1, 0, 0, 1, -3, -3)" filter="url(#Line_120)">
      <line id="Line_120-2" data-name="Line 120" x2="0.926" y2="6.173" transform="translate(8.4 16.42)" fill="none" stroke="#ededed" stroke-width="2"/>
    </g>
    <g transform="matrix(1, 0, 0, 1, -3, -3)" filter="url(#Line_121)">
      <line id="Line_121-2" data-name="Line 121" x1="0.926" y2="5.864" transform="translate(8.4 10.56)" fill="none" stroke="#ededed" stroke-width="2"/>
    </g>
    <g transform="matrix(1, 0, 0, 1, -3, -3)" filter="url(#Line_122)">
      <line id="Line_122-2" data-name="Line 122" x2="0.617" y2="6.79" transform="translate(12.41 14.26)" fill="none" stroke="#ededed" stroke-width="2"/>
    </g>
    <g transform="matrix(1, 0, 0, 1, -3, -3)" filter="url(#Line_123)">
      <line id="Line_123-2" data-name="Line 123" x1="1.543" y2="6.173" transform="translate(12.41 8.09)" fill="none" stroke="#ededed" stroke-width="2"/>
    </g>
    <g transform="matrix(1, 0, 0, 1, -3, -3)" filter="url(#Line_124)">
      <line id="Line_124-2" data-name="Line 124" x1="1.949" y2="7.795" transform="translate(17.13 4.46)" fill="none" stroke="#ededed" stroke-width="2"/>
    </g>
    <g transform="matrix(1, 0, 0, 1, -3, -3)" filter="url(#Line_125)">
      <line id="Line_125-2" data-name="Line 125" x1="0.533" y1="8.178" transform="translate(17.13 12.26)" fill="none" stroke="#ededed" stroke-width="2"/>
    </g>
    <g transform="matrix(1, 0, 0, 1, -3, -3)" filter="url(#Line_126)">
      <line id="Line_126-2" data-name="Line 126" y1="0.617" x2="4.63" transform="translate(13.03 20.43)" fill="none" stroke="#c6c6c6" stroke-width="2"/>
    </g>
    <g transform="matrix(1, 0, 0, 1, -3, -3)" filter="url(#Line_127)">
      <line id="Line_127-2" data-name="Line 127" y1="1.543" x2="3.704" transform="translate(9.33 21.05)" fill="none" stroke="#c6c6c6" stroke-width="2"/>
    </g>
    <g transform="matrix(1, 0, 0, 1, -3, -3)" filter="url(#Line_128)">
      <line id="Line_128-2" data-name="Line 128" y1="2.161" x2="3.086" transform="translate(6.24 22.59)" fill="none" stroke="#c6c6c6" stroke-width="2"/>
    </g>
    <g transform="matrix(1, 0, 0, 1, -3, -3)" filter="url(#Line_129)">
      <line id="Line_129-2" data-name="Line 129" x2="1.543" y2="5.247" transform="translate(4.7 19.51)" fill="none" stroke="#ededed" stroke-width="2"/>
    </g>
    <g transform="matrix(1, 0, 0, 1, -3, -3)" filter="url(#Line_130)">
      <line id="Line_130-2" data-name="Line 130" x1="1.416" y1="11.309" transform="translate(17.66 20.43)" fill="none" stroke="#ededed" stroke-width="2"/>
    </g>
    <g transform="matrix(1, 0, 0, 1, -3, -3)" filter="url(#Line_131)">
      <line id="Line_131-2" data-name="Line 131" x1="3.092" y1="6.013" transform="translate(6.24 24.76)" fill="none" stroke="#ededed" stroke-width="2"/>
    </g>
    <g transform="matrix(1, 0, 0, 1, -3, -3)" filter="url(#Line_132)">
      <line id="Line_132-2" data-name="Line 132" x1="9.743" y1="0.974" transform="translate(9.33 30.77)" fill="none" stroke="#ededed" stroke-width="2"/>
    </g>
    <g transform="matrix(1, 0, 0, 1, -3, -3)" filter="url(#Line_133)">
      <line id="Line_133-2" data-name="Line 133" x1="4.14" y2="4.519" transform="translate(19.08 27.22)" fill="none" stroke="#ededed" stroke-width="2"/>
    </g>
    <g transform="matrix(1, 0, 0, 1, -3, -3)" filter="url(#Line_134)">
      <line id="Line_134-2" data-name="Line 134" x1="4.63" y2="9.877" transform="translate(23.22 17.35)" fill="none" stroke="#ededed" stroke-width="2"/>
    </g>
    <g transform="matrix(1, 0, 0, 1, -3, -3)" filter="url(#Ellipse_87)">
      <circle id="Ellipse_87-2" data-name="Ellipse 87" cx="1.462" cy="1.462" r="1.462" transform="translate(4.95 22.97)" fill="#ededed"/>
    </g>
    <g transform="matrix(1, 0, 0, 1, -3, -3)" filter="url(#Ellipse_90)">
      <circle id="Ellipse_90-2" data-name="Ellipse 90" cx="1.462" cy="1.462" r="1.462" transform="translate(8.07 21.03)" fill="#ededed"/>
    </g>
    <g transform="matrix(1, 0, 0, 1, -3, -3)" filter="url(#Ellipse_97)">
      <circle id="Ellipse_97-2" data-name="Ellipse 97" cx="1.462" cy="1.462" r="1.462" transform="translate(6.9 14.69)" fill="#ededed"/>
    </g>
    <g transform="matrix(1, 0, 0, 1, -3, -3)" filter="url(#Ellipse_98)">
      <circle id="Ellipse_98-2" data-name="Ellipse 98" cx="1.462" cy="1.462" r="1.462" transform="translate(7.87 8.85)" fill="#ededed"/>
    </g>
    <g transform="matrix(1, 0, 0, 1, -3, -3)" filter="url(#Ellipse_91)">
      <circle id="Ellipse_91-2" data-name="Ellipse 91" cx="1.462" cy="1.462" r="1.462" transform="translate(11.77 19.56)" fill="#ededed"/>
    </g>
    <g transform="matrix(1, 0, 0, 1, -3, -3)" filter="url(#Ellipse_102)">
      <circle id="Ellipse_102-2" data-name="Ellipse 102" cx="1.462" cy="1.462" r="1.462" transform="translate(7.87 29.31)" fill="#ededed"/>
    </g>
    <g transform="matrix(1, 0, 0, 1, -3, -3)" filter="url(#Ellipse_95)">
      <circle id="Ellipse_95-2" data-name="Ellipse 95" cx="1.462" cy="1.462" r="1.462" transform="translate(10.79 12.74)" fill="#ededed"/>
    </g>
    <g transform="matrix(1, 0, 0, 1, -3, -3)" filter="url(#Ellipse_96)">
      <circle id="Ellipse_96-2" data-name="Ellipse 96" cx="1.462" cy="1.462" r="1.462" transform="translate(12.74 6.9)" fill="#ededed"/>
    </g>
    <g transform="matrix(1, 0, 0, 1, -3, -3)" filter="url(#Ellipse_92)">
      <circle id="Ellipse_92-2" data-name="Ellipse 92" cx="1.462" cy="1.462" r="1.462" transform="translate(16.15 19.08)" fill="#ededed"/>
    </g>
    <g transform="matrix(1, 0, 0, 1, -3, -3)" filter="url(#Ellipse_101)">
      <circle id="Ellipse_101-2" data-name="Ellipse 101" cx="1.462" cy="1.462" r="1.462" transform="translate(17.61 30.28)" fill="#ededed"/>
    </g>
    <g transform="matrix(1, 0, 0, 1, -3, -3)" filter="url(#Ellipse_100)">
      <circle id="Ellipse_100-2" data-name="Ellipse 100" cx="1.462" cy="1.462" r="1.462" transform="translate(22 25.41)" fill="#ededed"/>
    </g>
    <g transform="matrix(1, 0, 0, 1, -3, -3)" filter="url(#Ellipse_99)">
      <circle id="Ellipse_99-2" data-name="Ellipse 99" cx="1.462" cy="1.462" r="1.462" transform="translate(26.38 15.67)" fill="#ededed"/>
    </g>
    <g transform="matrix(1, 0, 0, 1, -3, -3)" filter="url(#Ellipse_94)">
      <circle id="Ellipse_94-2" data-name="Ellipse 94" cx="1.462" cy="1.462" r="1.462" transform="translate(17.61 3)" fill="#ededed"/>
    </g>
    <g transform="matrix(1, 0, 0, 1, -3, -3)" filter="url(#Ellipse_93)">
      <circle id="Ellipse_93-2" data-name="Ellipse 93" cx="1.462" cy="1.462" r="1.462" transform="translate(15.67 10.79)" fill="#ededed"/>
    </g>
    <g transform="matrix(1, 0, 0, 1, -3, -3)" filter="url(#Ellipse_88)">
      <circle id="Ellipse_88-2" data-name="Ellipse 88" cx="1.462" cy="1.462" r="1.462" transform="translate(3 17.61)" fill="#ededed"/>
    </g>
    <g transform="matrix(1, 0, 0, 1, -3, -3)" filter="url(#Ellipse_89)">
      <circle id="Ellipse_89-2" data-name="Ellipse 89" cx="1.462" cy="1.462" r="1.462" transform="translate(3.97 12.74)" fill="#ededed"/>
    </g>
  </g>
</svg>
